<?xml version="1.0" standalone="no"?>
<!DOCTYPE svg PUBLIC "-//W3C//DTD SVG 20010904//EN"
 "http://www.w3.org/TR/2001/REC-SVG-20010904/DTD/svg10.dtd">
<svg version="1.0" xmlns="http://www.w3.org/2000/svg"
 width="400.000000pt" height="144.000000pt" viewBox="0 0 400.000000 144.000000"
 preserveAspectRatio="xMidYMid meet">

<g transform="translate(0.000000,144.000000) scale(0.100000,-0.100000)"
fill="#000000" stroke="none">
<path d="M3820 1419 c-91 -10 -293 -32 -450 -49 -528 -57 -665 -73 -674 -81
-5 -4 29 -63 75 -131 45 -68 75 -117 66 -109 -17 13 -18 3 -17 -185 l2 -199
-51 -3 -52 -3 21 -29 c11 -15 20 -30 20 -33 0 -3 -47 -11 -105 -17 l-105 -13
0 -149 0 -148 38 5 c20 3 84 9 142 15 58 5 132 12 166 16 l60 6 55 96 c30 53
71 126 91 162 l36 66 -133 187 c-79 110 -129 190 -122 192 19 7 481 53 486 49
2 -2 -3 -84 -12 -182 -10 -97 -17 -255 -17 -349 l0 -173 48 1 c55 0 201 15
206 20 2 2 11 74 20 159 24 244 58 555 60 557 1 1 65 9 144 17 78 8 146 17
150 20 5 3 12 52 16 108 4 57 9 124 13 151 3 26 2 47 -3 46 -5 -1 -83 -10
-174 -20z m-1084 -161 l29 -33 -32 29 c-31 28 -38 36 -30 36 2 0 16 -15 33
-32z"/>
<path d="M2165 1241 l-50 -6 0 -338 0 -337 -75 0 c-41 0 -70 -4 -64 -8 6 -4
13 -15 17 -24 3 -10 12 -18 19 -18 17 0 12 -158 -5 -181 -7 -8 1 -2 16 14 l29
30 68 -68 c80 -79 74 -86 90 100 14 160 33 351 60 600 27 259 28 245 -17 243
-21 0 -60 -4 -88 -7z m-75 -835 c0 -2 -8 -10 -17 -17 -16 -13 -17 -12 -4 4 13
16 21 21 21 13z"/>
<path d="M1637 1104 c-232 -362 -257 -404 -234 -386 14 12 16 11 12 -6 -2 -12
-9 -30 -15 -42 -6 -12 -10 -23 -8 -25 2 -2 34 50 72 116 39 65 72 117 74 115
2 -3 -1 -13 -7 -24 -7 -12 -11 -128 -11 -311 l-1 -292 32 -41 c33 -41 33 -41
40 -16 3 14 12 87 18 164 16 182 37 395 61 623 11 102 18 187 15 189 -2 2 -24
-27 -48 -64z"/>
<path d="M403 1045 c-9 -9 -13 -67 -13 -188 -1 -145 1 -180 15 -207 9 -17 14
-34 12 -36 -2 -3 -53 88 -112 201 -59 113 -109 204 -111 202 -2 -2 -15 -114
-29 -248 -19 -190 -25 -300 -25 -496 l0 -253 28 0 c68 1 206 20 212 30 4 7 10
46 13 88 10 116 39 395 43 410 2 7 58 -96 125 -229 66 -133 124 -237 129 -233
4 5 44 65 89 133 l81 124 -117 226 c-63 124 -147 286 -185 359 l-69 132 -37 0
c-20 -1 -42 -7 -49 -15z"/>
<path d="M1663 465 c-3 -9 -3 -18 -1 -21 3 -3 8 4 11 16 6 23 -1 27 -10 5z"/>
<path d="M1641 384 c0 -11 3 -14 6 -6 3 7 2 16 -1 19 -3 4 -6 -2 -5 -13z"/>
</g>
</svg>
